<svg width="100%" height="100%" id="svg" viewBox="0 0 1440 490" xmlns="http://www.w3.org/2000/svg" class="transition duration-300 ease-in-out delay-150"><path d="M 0,500 L 0,75 C 30.97750384330695,81.62242023951869 61.9550076866139,88.24484047903738 103,85 C 144.0449923133861,81.75515952096262 195.1574730968514,68.6430583233692 237,76 C 278.8425269031486,83.3569416766308 311.41509992598077,111.18292622748581 353,102 C 394.58490007401923,92.81707377251419 445.18212719922565,46.62523676668754 489,47 C 532.8178728007744,47.37476323331246 569.8563912771167,94.31612670576402 607,107 C 644.1436087228833,119.68387329423598 681.3923076923077,98.11025641025641 721,89 C 760.6076923076923,79.88974358974359 802.5743779536525,83.24284765321035 847,86 C 891.4256220463475,88.75715234678965 938.3101804930818,90.9183529769022 975,86 C 1011.6898195069182,81.0816470230978 1038.1849000740192,69.08374043918087 1071,77 C 1103.8150999259808,84.91625956081913 1142.950219210841,112.74668526637439 1191,108 C 1239.049780789159,103.25331473362561 1296.0142230826168,65.9295184953216 1339,55 C 1381.9857769173832,44.0704815046784 1410.9928884586916,59.5352407523392 1440,75 L 1440,500 L 0,500 Z" stroke="none" stroke-width="0" fill="#a4bfa7" fill-opacity="0.265" class="transition-all duration-300 ease-in-out delay-150 path-0"></path><path d="M 0,500 L 0,175 C 28.407870713052063,179.84525992142574 56.815741426104125,184.69051984285144 101,190 C 145.18425857389587,195.30948015714856 205.1449050086356,201.0831805500199 255,191 C 304.8550949913644,180.9168194499801 344.6046385393535,154.97675795706886 381,153 C 417.3953614606465,151.02324204293114 450.4365408339502,173.00978762170473 482,174 C 513.5634591660498,174.99021237829527 543.6491981248458,154.98409155611228 585,152 C 626.3508018751542,149.01590844388772 678.9666666666666,163.05384615384614 722,164 C 765.0333333333334,164.94615384615386 798.4841352084875,152.80052382850312 831,159 C 863.5158647915125,165.19947617149688 895.096792499383,189.74405853214142 937,199 C 978.903207500617,208.25594146785858 1031.1286947939798,202.22324204293113 1080,191 C 1128.8713052060202,179.77675795706887 1174.3884283246978,163.36297329613393 1218,158 C 1261.6115716753022,152.63702670386607 1303.3175919072294,158.32486477253318 1340,163 C 1376.6824080927706,167.67513522746682 1408.3412040463854,171.33756761373343 1440,175 L 1440,500 L 0,500 Z" stroke="none" stroke-width="0" fill="#a4bfa7" fill-opacity="0.4" class="transition-all duration-300 ease-in-out delay-150 path-1"></path><path d="M 0,500 L 0,275 C 39.51244187591338,290.52757786255194 79.02488375182676,306.0551557251039 116,303 C 152.97511624817324,299.9448442748961 187.41290686860634,278.30695496213633 224,270 C 260.58709313139366,261.69304503786367 299.32348877374784,266.7170244263508 344,264 C 388.67651122625216,261.2829755736492 439.2931380364023,250.82494733246028 485,258 C 530.7068619635977,265.1750526675397 571.5039590806431,289.98318624380795 606,300 C 640.4960409193569,310.01681375619205 668.6910256410256,305.24230769230775 709,302 C 749.3089743589744,298.75769230769225 801.7319383552546,297.0475829869612 849,295 C 896.2680616447454,292.9524170130388 938.3812209379566,290.5673603598474 978,284 C 1017.6187790620434,277.4326396401526 1054.743177892919,266.6829755736491 1092,262 C 1129.256822107081,257.3170244263509 1166.6460674903678,258.70073734555604 1203,258 C 1239.3539325096322,257.29926265444396 1274.6725521456092,254.51407504412686 1314,257 C 1353.3274478543908,259.48592495587314 1396.6637239271954,267.24296247793654 1440,275 L 1440,500 L 0,500 Z" stroke="none" stroke-width="0" fill="#a4bfa7" fill-opacity="0.53" class="transition-all duration-300 ease-in-out delay-150 path-2"></path><path d="M 0,500 L 0,375 C 36.91207367761771,380.4400700335933 73.82414735523543,385.8801400671867 117,389 C 160.17585264476457,392.1198599328133 209.61548425667604,392.91950976484657 244,394 C 278.38451574332396,395.08049023515343 297.7139156180607,396.44182087342705 341,399 C 384.2860843819393,401.55817912657295 451.5288532710813,405.3132067414451 492,402 C 532.4711467289187,398.6867932585549 546.1706712976143,388.30535216079255 579,388 C 611.8293287023857,387.69464783920745 663.7884615384615,397.4653846153846 708,400 C 752.2115384615385,402.5346153846154 788.6754825485395,397.83310937766896 835,387 C 881.3245174514605,376.16689062233104 937.5096082673803,359.20217787393955 980,363 C 1022.4903917326197,366.79782212606045 1051.2860843819392,391.3581791265729 1079,391 C 1106.7139156180608,390.6418208734271 1133.3460542048626,365.3651056197689 1180,364 C 1226.6539457951374,362.6348943802311 1293.3296987986107,385.18139839435173 1340,391 C 1386.6703012013893,396.81860160564827 1413.3351506006948,385.90930080282413 1440,375 L 1440,500 L 0,500 Z" stroke="none" stroke-width="0" fill="#a4bfa7" fill-opacity="1" class="transition-all duration-300 ease-in-out delay-150 path-3"></path></svg>